Stolichani v poveche.S05E01.WEB.Rip.MP4.MC.FREEPLAY.mp4
   General
      Complete name : D:My videosMoviesStolichani v poveche.S05E01.WEB.Rip.MP4.MC.FREEPLAY.mp4
      Format : MPEG-4
      Format profile : Base Media / Version 2
      Codec ID : mp42
      File size : 889 MiB
      Duration : 47mn 13s
      Overall bit rate : 2 631 Kbps
      Encoded date : UTC 2013-03-04 07:11:51
      Tagged date : UTC 2013-03-04 07:11:51
   Video #1
      ID : 1
      Format : MPEG-4 Visual
      Format profile : AdvancedSimple@L5
      Format settings, BVOP : No
      Format settings, QPel : No
      Format settings, GMC : No warppoints
      Format settings, Matrix : Default (H.263)
      Codec ID : 20
      Duration : 47mn 13s
      Bit rate mode : Variable
      Bit rate : 2 502 Kbps
      Maximum bit rate : 26.3 Mbps
      Width : 1 280 pixels
      Height : 720 pixels
      Display aspect ratio : 16:9
      Frame rate mode : Constant
      Frame rate : 30.000 fps
      Resolution : 24 bits
      Colorimetry : 4:2:0
      Scan type : Progressive
      Bits/(Pixel*Frame) : 0.090
      Stream size : 845 MiB (95%)
      Language : English
      Encoded date : UTC 2013-03-04 07:11:51
      Tagged date : UTC 2013-03-04 07:11:51
   Audio #2
      ID : 2
      Format : AAC
      Format/Info : Advanced Audio Codec
      Format version : Version 4
      Format profile : LC
      Format settings, SBR : No
      Codec ID : 40
      Duration : 47mn 13s
      Bit rate mode : Variable
      Bit rate : 126 Kbps
      Maximum bit rate : 229 Kbps
      Channel(s) : 2 channels
      Channel positions : L R
      Sampling rate : 44.1 KHz
      Resolution : 16 bits
      Stream size : 42.5 MiB (5%)
      Language : English
      Encoded date : UTC 2013-03-04 07:11:51
      Tagged date : UTC 2013-03-04 07:11:51